<?xml version="1.0" encoding="UTF-8" standalone="no"?>
<!-- Created with Inkscape (http://www.inkscape.org/) -->

<svg
   xmlns:dc="http://purl.org/dc/elements/1.1/"
   xmlns:cc="http://creativecommons.org/ns#"
   xmlns:rdf="http://www.w3.org/1999/02/22-rdf-syntax-ns#"
   xmlns:svg="http://www.w3.org/2000/svg"
   xmlns="http://www.w3.org/2000/svg"
   xmlns:sodipodi="http://sodipodi.sourceforge.net/DTD/sodipodi-0.dtd"
   xmlns:inkscape="http://www.inkscape.org/namespaces/inkscape"
   width="297mm"
   height="210mm"
   viewBox="0 0 297 210"
   version="1.1"
   id="svg4058"
   inkscape:version="0.92.3 (unknown)"
   sodipodi:docname="logo.svg">
  <defs
     id="defs4053">
    <filter
       style="color-interpolation-filters:sRGB"
       inkscape:label="Lightness-Contrast"
       id="filter4235">
      <feColorMatrix
         type="hueRotate"
         values="180"
         result="color1"
         id="feColorMatrix4231" />
      <feColorMatrix
         values="1 0 0 0 0 0 1 0 0 0 0 0 1 0 0 -0.21 -0.72 -0.07 2 0 "
         result="fbSourceGraphic"
         id="feColorMatrix4233" />
      <feColorMatrix
         result="fbSourceGraphicAlpha"
         in="fbSourceGraphic"
         values="0 0 0 -1 0 0 0 0 -1 0 0 0 0 -1 0 0 0 0 1 0"
         id="feColorMatrix4237" />
      <feColorMatrix
         id="feColorMatrix4239"
         type="hueRotate"
         values="180"
         result="color1"
         in="fbSourceGraphic" />
      <feColorMatrix
         id="feColorMatrix4241"
         values="-1 0 0 0 1 0 -1 0 0 1 0 0 -1 0 1 -0.21 -0.72 -0.07 2 0 "
         result="fbSourceGraphic" />
      <feColorMatrix
         result="fbSourceGraphicAlpha"
         in="fbSourceGraphic"
         values="0 0 0 -1 0 0 0 0 -1 0 0 0 0 -1 0 0 0 0 1 0"
         id="feColorMatrix4243" />
      <feColorMatrix
         id="feColorMatrix4245"
         values="1 0 0 1 -0 0 1 0 1 -0 0 0 1 1 -0 0 0 0 1 0"
         in="fbSourceGraphic" />
    </filter>
  </defs>
  <sodipodi:namedview
     id="base"
     pagecolor="#ffffff"
     bordercolor="#666666"
     borderopacity="1.0"
     inkscape:pageopacity="0"
     inkscape:pageshadow="2"
     inkscape:zoom="0.7"
     inkscape:cx="813.95258"
     inkscape:cy="374.64718"
     inkscape:document-units="mm"
     showgrid="false"
     inkscape:pagecheckerboard="true"
     inkscape:window-width="1920"
     inkscape:window-height="1012"
     inkscape:window-x="0"
     inkscape:window-y="32"
     inkscape:window-maximized="1"
     inkscape:current-layer="g4192"
     units="mm" />
  <metadata
     id="metadata4056">
    <rdf:RDF>
      <cc:Work
         rdf:about="">
        <dc:format>image/svg+xml</dc:format>
        <dc:type
           rdf:resource="http://purl.org/dc/dcmitype/StillImage" />
        <dc:title></dc:title>
      </cc:Work>
    </rdf:RDF>
  </metadata>
  <g
     id="g4192"
     transform="matrix(9.305939,0,0,9.305939,-945.93914,-1741.1149)">
    <path
       style="fill:#333333;fill-opacity:1;stroke-width:0.16933334;filter:url(#filter4235)"
       d="m 110.30051,200.50764 c 0,-0.14096 0.0922,-0.40395 0.20492,-0.58442 0.14264,-0.22841 0.15551,-0.46253 0.0423,-0.77037 -0.15018,-0.40848 -0.24954,-0.44627 -1.30195,-0.49521 l -1.13937,-0.053 -0.55397,0.73573 c -0.51097,0.67863 -0.93242,0.90397 -1.19659,0.6398 -0.0585,-0.0585 0.15737,-0.42833 0.47977,-0.82178 0.67532,-0.82414 0.77705,-1.17281 0.17796,-0.61 -0.4935,0.46362 -1.02903,0.40944 -1.03626,-0.10485 -0.009,-0.62691 -1.0159,-1.71451 -1.64377,-1.77518 -0.3673,-0.0355 -0.56868,-0.15363 -0.60705,-0.35611 -0.0466,-0.2461 0.0217,-0.28315 0.36364,-0.19732 0.33027,0.0829 0.44523,0.0296 0.53312,-0.24734 0.0616,-0.19416 0.0675,-0.49325 0.0131,-0.66465 -0.15016,-0.4731 2.15592,-2.74352 3.36997,-3.31785 l 0.95603,-0.45228 1.47338,0.38988 c 1.25997,0.33342 1.88763,0.38989 4.33355,0.38989 h 2.86017 l 0.44183,-0.57241 c 1.9115,-2.47642 2.25275,-2.75516 3.61682,-2.95428 0.4759,-0.0695 0.635,-0.0332 0.635,0.14471 0,0.367 -0.62149,0.6138 -1.24916,0.49605 -0.51766,-0.0971 -0.62036,-0.0414 -1.17836,0.6396 -0.33621,0.41029 -0.81277,1.18609 -1.05903,1.72399 -0.38947,0.85072 -0.42052,1.0365 -0.23859,1.4275 0.11503,0.24723 0.25729,0.8305 0.31614,1.29617 0.0963,0.76219 0.15263,0.85193 0.56428,0.89944 0.32554,0.0376 0.63618,0.30177 1.0782,0.91704 0.72814,1.01352 1.05881,1.91374 0.64456,1.75478 -0.14322,-0.055 -0.28512,-0.0999 -0.31533,-0.0999 -0.0302,0 -0.32866,-0.381 -0.66321,-0.84666 -0.33455,-0.46567 -0.72269,-0.84667 -0.86255,-0.84667 -0.28903,0 -0.34058,0.26534 -0.0825,0.42483 0.3329,0.20574 0.84425,1.4315 0.84425,2.02376 0,0.4881 -0.0634,0.59941 -0.34136,0.59941 -0.27146,0 -0.33378,-0.0994 -0.30437,-0.48538 0.0447,-0.58629 -0.33639,-1.20505 -1.10153,-1.78865 -1.0878,-0.82971 -1.44529,-0.8599 -3.10914,-0.26254 -0.82148,0.29493 -2.027,0.71964 -2.67893,0.94381 -0.65194,0.22416 -1.27362,0.44057 -1.38153,0.48091 -0.14136,0.0529 -0.15156,0.272 -0.0365,0.78407 0.20459,0.91056 -0.0711,1.85178 -0.54243,1.85178 -0.17904,0 -0.32553,-0.11533 -0.32553,-0.2563 z m -0.43719,-2.04782 c 0.46904,-0.17998 0.2885,-0.40521 -0.32481,-0.40521 -0.61706,0 -0.81144,0.25666 -0.29634,0.39127 0.16299,0.0426 0.30915,0.0863 0.32482,0.0971 0.0157,0.0108 0.14902,-0.0266 0.29633,-0.0831 z m 2.77673,-1.20636 c 0.51148,-0.16123 0.96243,-0.40888 1.00211,-0.55033 0.0397,-0.14146 0.56616,-0.62457 1.16997,-1.07358 0.8198,-0.60965 1.05339,-0.86994 0.92238,-1.0278 -0.0965,-0.11627 -0.79058,-0.6543 -1.5424,-1.19562 l -1.36696,-0.98421 -1.13532,0.78458 c -0.62443,0.43152 -1.35621,0.9616 -1.62618,1.17795 l -0.49086,0.39338 1.49613,1.08007 1.49613,1.08007 -0.53127,0.13767 c -0.53756,0.13929 -0.91114,0.47097 -0.53048,0.47097 0.11372,0 0.62526,-0.13192 1.13675,-0.29315 z m -1.26897,-1.51851 -1.37328,-0.97315 0.95569,-0.69396 c 0.52562,-0.38168 1.16265,-0.82897 1.41561,-0.99398 l 0.45992,-0.30001 1.36041,0.95871 c 0.74822,0.52729 1.36041,0.98544 1.36041,1.01812 0,0.0846 -2.34848,1.78204 -2.59805,1.87781 -0.11409,0.0438 -0.82541,-0.35831 -1.58071,-0.89354 z m 2.76286,-0.30501 c 0.0536,-0.1397 0.0436,-0.38735 -0.0223,-0.55033 -0.10639,-0.26329 -0.13612,-0.25385 -0.26666,0.0847 -0.0856,0.22193 -0.29059,0.381 -0.49104,0.381 -0.3077,0 -0.34412,-0.10752 -0.34412,-1.016 0,-0.85506 -0.0469,-1.01586 -0.29633,-1.01512 -0.25339,7.5e-4 -0.29712,0.17256 -0.30171,1.18533 l -0.005,1.18446 h 0.81502 c 0.56825,0 0.84453,-0.0769 0.91249,-0.254 z m -7.16095,1.17991 c -0.14341,-0.37373 -0.37928,-0.29892 -0.27805,0.0882 0.0484,0.18521 0.15228,0.29707 0.23076,0.24857 0.0785,-0.0485 0.0998,-0.20004 0.0473,-0.33676 z m 9.28523,-1.30127 c -0.12151,-0.1215 -0.20038,-0.1315 -0.20038,-0.0254 0,0.22603 0.20026,0.42628 0.31327,0.31327 0.0481,-0.0481 -0.003,-0.17766 -0.11289,-0.28787 z m 0.73095,-0.13264 c 0.0576,-0.0931 0.024,-0.16933 -0.0747,-0.16933 -0.0986,0 -0.17933,0.0762 -0.17933,0.16933 0,0.0931 0.0336,0.16933 0.0747,0.16933 0.0411,0 0.12176,-0.0762 0.17932,-0.16933 z m -7.75082,-1.98883 c 0.40166,-0.32523 0.42248,-0.38028 0.14416,-0.381 -0.62442,-0.002 -0.94611,0.49248 -0.92612,1.42241 l 0.0186,0.86275 0.14695,-0.762 c 0.0993,-0.51488 0.29921,-0.88528 0.61645,-1.14216 z m 8.60996,0.50313 c -0.29256,-0.27944 -0.2971,-0.27489 -0.1032,0.1032 0.11156,0.21753 0.24928,0.34907 0.30604,0.2923 0.0568,-0.0568 -0.0345,-0.23473 -0.20284,-0.3955 z m -9.58626,-1.10259 c 0.004,-0.0731 -0.16499,-0.0422 -0.37454,0.0687 -0.59273,0.31377 -1.48167,1.02032 -1.48167,1.17767 0,0.17686 1.84733,-1.06357 1.85621,-1.2464 z m 8.04979,0.21762 c 0.0576,-0.0931 0.0284,-0.16933 -0.0647,-0.16933 -0.0931,0 -0.21643,0.0762 -0.27399,0.16933 -0.0576,0.0931 -0.0284,0.16934 0.0647,0.16934 0.0931,0 0.21643,-0.0762 0.27399,-0.16934 z"
       id="path4194"
       inkscape:connector-curvature="0"
       transform="matrix(1.6027749,0,0,1.6027749,-63.465554,-113.26947)" />
  </g>
</svg>
